Coordinates
version=1
nRows=54
nColumns=12
inDegrees=yes

Units are S.I. units (second, meters, Newtons, ...)
Angles are in degrees

endheader
time	SC_y	SC_z	SC_x	AC_y	AC_z	AC_x	GH_y	GH_z	GH_yy	EL_x	PS_y
       0.0              -20.01          21.32          10.78          61.62          7.262           5.82          42.58          28.78          61.08          22.87          76.75
  0.002296              -20.01          21.32          10.79          61.62          7.259          5.819          42.59          28.78          61.09          22.88          76.75
  0.004592              -20.01          21.32           10.8          61.61          7.256          5.818           42.6          28.78           61.1           22.9          76.75
  0.006887              -20.01          21.32           10.8          61.61          7.252          5.816          42.61          28.78          61.12          22.91          76.75
  0.009183              -20.01          21.32          10.81           61.6          7.248          5.815          42.62          28.78          61.13          22.93          76.75
   0.01148              -20.01          21.32          10.82           61.6          7.244          5.814          42.63          28.79          61.15          22.94          76.74
   0.01377              -20.01          21.32          10.84          61.59          7.239          5.812          42.64          28.79          61.16          22.96          76.74
   0.01607              -20.01          21.33          10.85          61.58          7.234           5.81          42.65          28.79          61.18          22.98          76.74
   0.01837              -20.01          21.33          10.86          61.58          7.229          5.809          42.67          28.79           61.2           23.0          76.74
   0.02066              -20.01          21.33          10.87          61.57          7.224          5.807          42.68          28.79          61.22          23.02          76.73
   0.02296              -20.01          21.33          10.89          61.56          7.218          5.805           42.7           28.8          61.24          23.04          76.73
   0.02525              -20.02          21.33          10.91          61.55          7.212          5.802          42.71           28.8          61.27          23.06          76.73
   0.02755              -20.02          21.33          10.92          61.54          7.205            5.8          42.73           28.8          61.29          23.09          76.72
   0.02985              -20.02          21.33          10.94          61.53          7.197          5.797          42.75          28.81          61.32          23.12          76.72
   0.03214              -20.02          21.33          10.96          61.52          7.189          5.795          42.77          28.81          61.35          23.15          76.72
   0.03444              -20.02          21.34          10.98          61.51          7.181          5.792          42.79          28.81          61.38          23.18          76.71
   0.03673              -20.02          21.34          11.01           61.5          7.171          5.788          42.82          28.82          61.42          23.22          76.71
   0.03903              -20.03          21.34          11.03          61.49          7.161          5.785          42.85          28.82          61.45          23.26           76.7
   0.04132              -20.03          21.34          11.06          61.47           7.15          5.781          42.88          28.83           61.5           23.3           76.7
   0.04362              -20.03          21.34          11.09          61.46          7.137          5.776          42.91          28.83          61.54          23.35          76.69
   0.04592              -20.03          21.35          11.12          61.44          7.124          5.772          42.94          28.84          61.59           23.4          76.69
   0.04821              -20.04          21.35          11.16          61.42          7.109          5.767          42.98          28.84          61.65          23.45          76.68
   0.05051              -20.04          21.35           11.2           61.4          7.092          5.761          43.03          28.85          61.71          23.51          76.67
    0.0528              -20.04          21.36          11.25          61.37          7.074          5.754          43.07          28.86          61.77          23.58          76.66
    0.0551              -20.05          21.36           11.3          61.35          7.054          5.747          43.13          28.86          61.85          23.66          76.65
    0.0574              -20.05          21.36          11.36          61.32          7.031           5.74          43.18          28.87          61.93          23.75          76.64
   0.05969              -20.06          21.37          11.42          61.28          7.006          5.731          43.25          28.88          62.03          23.84          76.63
   0.06199              -20.06          21.37          11.49          61.24          6.978          5.721          43.33           28.9          62.13          23.95          76.62
   0.06428              -20.07          21.38          11.57           61.2          6.945           5.71          43.41          28.91          62.25          24.07           76.6
   0.06658              -20.08          21.39          11.66          61.15          6.909          5.697           43.5          28.93          62.39          24.21          76.59
   0.06887              -20.08           21.4          11.77           61.1          6.867          5.682          43.61          28.94          62.54          24.37          76.57
   0.07117              -20.09           21.4          11.89          61.04          6.819          5.666          43.74          28.96          62.72          24.55          76.54
   0.07347               -20.1          21.41          12.02          60.96          6.764          5.646          43.88          28.99          62.92          24.76          76.52
   0.07576              -20.12          21.43          12.18          60.88            6.7          5.624          44.05          29.01          63.16           25.0          76.49
   0.07806              -20.13          21.44          12.37          60.78          6.625          5.598          44.25          29.04          63.44          25.28          76.45
   0.08035              -20.15          21.46          12.59          60.66          6.536          5.567          44.48          29.08          63.77          25.62          76.41
   0.08265              -20.17          21.48          12.86          60.52          6.431           5.53          44.75          29.12          64.16          26.02          76.36
   0.08495              -20.19           21.5          13.17          60.36          6.305          5.487          45.08          29.18          64.63          26.49           76.3
   0.08724              -20.22          21.53          13.55          60.15          6.152          5.433          45.48          29.24          65.19          27.07          76.23
   0.08954              -20.26          21.57          14.02          59.91          5.966          5.369          45.97          29.32          65.88          27.78          76.14
   0.09183               -20.3          21.61          14.59           59.6          5.736          5.288          46.57          29.41          66.74          28.65          76.04
   0.09413              -20.36          21.66          15.31          59.23          5.449          5.188          47.32          29.53           67.8          29.73           75.9
   0.09642              -20.43          21.73          16.21          58.75          5.088          5.063          48.26          29.68          69.14           31.1          75.73
   0.09872              -20.52          21.82          17.36          58.14          4.628          4.903          49.46          29.88          70.85          32.84          75.52
     0.101              -20.64          21.93          18.83          57.36           4.04          4.698           51.0          30.12          73.03          35.06          75.24
    0.1033              -20.78          22.07          20.72          56.37          3.286          4.435          52.97          30.44          75.82          37.92          74.89
    0.1056              -20.97          22.26          23.12          55.09          2.322          4.099          55.49          30.84           79.4          41.56          74.44
    0.1079              -21.21          22.49          26.15          53.49           1.11          3.677          58.66          31.34          83.89          46.15          73.87
    0.1102               -21.5          22.77          29.84          51.54        -0.3673          3.163          62.51          31.96          89.37          51.74          73.18
    0.1125              -21.83          23.09          34.12          49.28         -2.079          2.567          66.99          32.67          95.72          58.21          72.38
    0.1148              -22.19          23.44          38.75          46.83         -3.933          1.921          71.83          33.44          102.6          65.22          71.51
    0.1171              -22.56          23.79          43.38          44.38         -5.787          1.276          76.67          34.22          109.5          72.24          70.64
    0.1194              -22.89          24.12          47.66          42.12         -7.499         0.6797          81.15          34.93          115.8          78.71          69.84
    0.1217              -23.18           24.4          51.35          40.17         -8.976         0.1654           85.0          35.55          121.3           84.3          69.14
